<svg width="230" height="22" viewBox="0 0 230 22" xmlns="http://www.w3.org/2000/svg">
    <path d="M5.616 5.672v2.04c.224-.816.488-1.416.792-1.8.704-.88 1.688-1.32 2.952-1.32.88 0 1.62.284 2.22.852.6.568.9 1.268.9 2.1 0 .656-.192 1.196-.576 1.62-.384.424-.872.636-1.464.636a1.62 1.62 0 0 1-1.14-.432 1.382 1.382 0 0 1-.468-1.056c0-.224.104-.536.312-.936H9c-1.072 0-1.792.568-2.16 1.704-.288.912-.432 1.96-.432 3.144v.912c0 .576.048.944.144 1.104.064.096.176.144.336.144.144 0 .344-.032.6-.096s.448-.096.576-.096c.352 0 .652.124.9.372s.372.548.372.9c0 .464-.156.852-.468 1.164a1.551 1.551 0 0 1-1.14.468c-.24 0-.688-.04-1.344-.12a13.08 13.08 0 0 0-1.512-.072c-.608 0-1.144.024-1.608.072-.768.08-1.24.12-1.416.12-.992 0-1.488-.536-1.488-1.608 0-.896.384-1.344 1.152-1.344.128 0 .272.028.432.084.16.056.28.084.36.084.272 0 .408-.448.408-1.344V9.08c0-.912-.136-1.368-.408-1.368-.064 0-.188.028-.372.084a1.584 1.584 0 0 1-.42.084C.744 7.88.36 7.44.36 6.56c0-.48.128-.872.384-1.176.256-.304.584-.456.984-.456.16 0 .384.032.672.096.288.064.56.096.816.096.192 0 .472-.032.84-.096a5.3 5.3 0 0 1 .816-.096c.496 0 .744.248.744.744zM24.6 9.968c0 .672-.084 1.12-.252 1.344-.168.224-.5.336-.996.336h-5.856c-.288 0-.468.028-.54.084-.072.056-.108.196-.108.42 0 .672.216 1.232.648 1.68.432.448.976.672 1.632.672.672 0 1.36-.368 2.064-1.104.48-.512 1.008-.768 1.584-.768.48 0 .868.136 1.164.408.296.272.444.616.444 1.032 0 .928-.508 1.716-1.524 2.364-1.016.648-2.252.972-3.708.972-1.904 0-3.424-.576-4.56-1.728-1.136-1.152-1.704-2.688-1.704-4.608 0-1.936.564-3.5 1.692-4.692 1.128-1.192 2.604-1.788 4.428-1.788 1.696 0 3.052.488 4.068 1.464 1.016.976 1.524 2.28 1.524 3.912zm-7.632-1.2c0 .096.024.176.072.24.048.064.216.096.504.096h2.688c.24 0 .388-.028.444-.084.056-.056.084-.156.084-.3 0-.416-.184-.78-.552-1.092a1.941 1.941 0 0 0-1.296-.468c-.64 0-1.16.248-1.56.744-.256.32-.384.608-.384.864zm19.824 8.64c-1.312 0-2.192-.528-2.64-1.584-1.12 1.056-2.448 1.584-3.984 1.584-1.264 0-2.272-.332-3.024-.996-.752-.664-1.128-1.548-1.128-2.652 0-1.68.728-2.768 2.184-3.264a15.264 15.264 0 0 1 2.16-.528c1.136-.192 1.908-.412 2.316-.66.408-.248.612-.628.612-1.14 0-.368-.156-.676-.468-.924-.312-.248-.7-.372-1.164-.372-.528 0-.792.168-.792.504 0 .112.008.224.024.336v.096c0 .448-.188.824-.564 1.128-.376.304-.844.456-1.404.456-.64 0-1.168-.192-1.584-.576a1.878 1.878 0 0 1-.624-1.44c0-.864.456-1.544 1.368-2.04.912-.496 2.168-.744 3.768-.744 1.728 0 3.016.264 3.864.792.912.576 1.368 1.648 1.368 3.216v4.968c0 .512.128.768.384.768.128 0 .248-.008.36-.024a.532.532 0 0 1 .168-.024c.368 0 .68.128.936.384s.384.568.384.936c0 .528-.236.96-.708 1.296-.472.336-1.076.504-1.812.504zm-3.48-5.136v-.528c-.112.064-.816.264-2.112.6-.88.224-1.32.568-1.32 1.032 0 .736.432 1.104 1.296 1.104 1.424 0 2.136-.736 2.136-2.208zM44.88.848c.448 0 .672.296.672.888v11.352c0 .8.16 1.2.48 1.2.128 0 .24-.016.336-.048.096-.032.224-.048.384-.048.704 0 1.056.416 1.056 1.248 0 1.104-.48 1.656-1.44 1.656-.016 0-.624-.048-1.824-.144-.368-.032-.76-.048-1.176-.048-.352 0-.728.024-1.128.072-.672.08-1.096.12-1.272.12-.432 0-.784-.148-1.056-.444-.272-.296-.408-.684-.408-1.164 0-.896.392-1.344 1.176-1.344.096 0 .228.028.396.084.168.056.3.084.396.084.272 0 .408-.448.408-1.344V4.976c0-.896-.136-1.344-.408-1.344a1.33 1.33 0 0 0-.432.096 1.249 1.249 0 0 1-.384.048c-.768 0-1.152-.44-1.152-1.32 0-.496.136-.888.408-1.176.272-.288.64-.432 1.104-.432.128 0 .4.024.816.072.544.064.952.096 1.224.096.368 0 .688-.032.96-.096.368-.048.656-.072.864-.072zM59.808 4.76c1.216 0 2.336.472 3.36 1.416V4.448c0-.576-.2-.864-.6-.864-.096 0-.288.016-.576.048a2.112 2.112 0 0 1-.624.096c-.304 0-.56-.128-.768-.384-.208-.256-.312-.576-.312-.96 0-1.024.544-1.536 1.632-1.536.352 0 .608.008.768.024.64.064 1.072.096 1.296.096.208 0 .512-.016.912-.048s.696-.048.888-.048c.4 0 .676.092.828.276.152.184.228.524.228 1.02v10.92c0 .816.152 1.224.456 1.224.096 0 .216-.024.36-.072.096-.032.224-.048.384-.048.688 0 1.032.408 1.032 1.224 0 .496-.12.9-.36 1.212a1.15 1.15 0 0 1-.96.468h-.144l-.84-.144a5.283 5.283 0 0 0-.816-.048c-.416 0-.76.016-1.032.048-.4.048-.616.072-.648.072-.496 0-.744-.288-.744-.864v-.888c-.832 1.424-2.08 2.136-3.744 2.136-1.472 0-2.684-.604-3.636-1.812-.952-1.208-1.428-2.732-1.428-4.572 0-1.872.468-3.384 1.404-4.536.936-1.152 2.164-1.728 3.684-1.728zm.84 3.024c-.592 0-1.076.28-1.452.84-.376.56-.588 1.32-.636 2.28v.312c0 .976.188 1.744.564 2.304.376.56.884.84 1.524.84.704 0 1.276-.304 1.716-.912.44-.608.66-1.416.66-2.424 0-.976-.216-1.76-.648-2.352-.432-.592-1.008-.888-1.728-.888zM81.72 9.968c0 .672-.084 1.12-.252 1.344-.168.224-.5.336-.996.336h-5.856c-.288 0-.468.028-.54.084-.072.056-.108.196-.108.42 0 .672.216 1.232.648 1.68.432.448.976.672 1.632.672.672 0 1.36-.368 2.064-1.104.48-.512 1.008-.768 1.584-.768.48 0 .868.136 1.164.408.296.272.444.616.444 1.032 0 .928-.508 1.716-1.524 2.364-1.016.648-2.252.972-3.708.972-1.904 0-3.424-.576-4.56-1.728-1.136-1.152-1.704-2.688-1.704-4.608 0-1.936.564-3.5 1.692-4.692 1.128-1.192 2.604-1.788 4.428-1.788 1.696 0 3.052.488 4.068 1.464 1.016.976 1.524 2.28 1.524 3.912zm-7.632-1.2c0 .096.024.176.072.24.048.064.216.096.504.096h2.688c.24 0 .388-.028.444-.084.056-.056.084-.156.084-.3 0-.416-.184-.78-.552-1.092a1.941 1.941 0 0 0-1.296-.468c-.64 0-1.16.248-1.56.744-.256.32-.384.608-.384.864zm19.824 8.64c-1.312 0-2.192-.528-2.64-1.584-1.12 1.056-2.448 1.584-3.984 1.584-1.264 0-2.272-.332-3.024-.996-.752-.664-1.128-1.548-1.128-2.652 0-1.68.728-2.768 2.184-3.264a15.264 15.264 0 0 1 2.16-.528c1.136-.192 1.908-.412 2.316-.66.408-.248.612-.628.612-1.14 0-.368-.156-.676-.468-.924-.312-.248-.7-.372-1.164-.372-.528 0-.792.168-.792.504 0 .112.008.224.024.336v.096c0 .448-.188.824-.564 1.128-.376.304-.844.456-1.404.456-.64 0-1.168-.192-1.584-.576a1.878 1.878 0 0 1-.624-1.44c0-.864.456-1.544 1.368-2.04.912-.496 2.168-.744 3.768-.744 1.728 0 3.016.264 3.864.792.912.576 1.368 1.648 1.368 3.216v4.968c0 .512.128.768.384.768.128 0 .248-.008.36-.024a.532.532 0 0 1 .168-.024c.368 0 .68.128.936.384s.384.568.384.936c0 .528-.236.96-.708 1.296-.472.336-1.076.504-1.812.504zm-3.48-5.136v-.528c-.112.064-.816.264-2.112.6-.88.224-1.32.568-1.32 1.032 0 .736.432 1.104 1.296 1.104 1.424 0 2.136-.736 2.136-2.208zM102 .848c.448 0 .672.296.672.888v11.352c0 .8.16 1.2.48 1.2.128 0 .24-.016.336-.048.096-.032.224-.048.384-.048.704 0 1.056.416 1.056 1.248 0 1.104-.48 1.656-1.44 1.656-.016 0-.624-.048-1.824-.144-.368-.032-.76-.048-1.176-.048-.352 0-.728.024-1.128.072-.672.08-1.096.12-1.272.12-.432 0-.784-.148-1.056-.444-.272-.296-.408-.684-.408-1.164 0-.896.392-1.344 1.176-1.344.096 0 .228.028.396.084.168.056.3.084.396.084.272 0 .408-.448.408-1.344V4.976c0-.896-.136-1.344-.408-1.344a1.33 1.33 0 0 0-.432.096 1.249 1.249 0 0 1-.384.048c-.768 0-1.152-.44-1.152-1.32 0-.496.136-.888.408-1.176.272-.288.64-.432 1.104-.432.128 0 .4.024.816.072.544.064.952.096 1.224.096.368 0 .688-.032.96-.096.368-.048.656-.072.864-.072zm16.128 3.744l.912.048c.016-.816.288-1.452.816-1.908.528-.456 1.256-.684 2.184-.684.752 0 1.38.192 1.884.576.504.384.756.872.756 1.464 0 .4-.132.736-.396 1.008a1.33 1.33 0 0 1-.996.408c-.448 0-.776-.168-.984-.504l-.24-.384c-.064-.112-.168-.168-.312-.168-.336 0-.504.232-.504.696 0 .112.008.192.024.24 1.536.544 2.304 1.632 2.304 3.264 0 1.232-.476 2.224-1.428 2.976-.952.752-2.204 1.128-3.756 1.128-.832 0-1.688-.184-2.568-.552l-.12-.048c-.24.192-.36.4-.36.624 0 .544.384.88 1.152 1.008.256.048.84.072 1.752.072h.264l1.536-.024c1.536-.016 2.72.28 3.552.888.832.608 1.248 1.472 1.248 2.592 0 1.424-.624 2.548-1.872 3.372-1.248.824-2.944 1.236-5.088 1.236-1.92 0-3.46-.356-4.62-1.068-1.16-.712-1.74-1.66-1.74-2.844 0-1.28.808-2.168 2.424-2.664-1.28-.256-1.92-.984-1.92-2.184 0-.624.14-1.116.42-1.476.28-.36.78-.7 1.5-1.02-.576-.64-.864-1.344-.864-2.112 0-1.12.484-2.06 1.452-2.82.968-.76 2.164-1.14 3.588-1.14zm.192 2.52c-.448 0-.82.148-1.116.444-.296.296-.444.668-.444 1.116 0 .448.148.824.444 1.128.296.304.668.456 1.116.456.448 0 .82-.152 1.116-.456.296-.304.444-.672.444-1.104 0-.448-.148-.824-.444-1.128a1.493 1.493 0 0 0-1.116-.456zm-.48 9.552c-.384 0-.864-.032-1.44-.096-.72.288-1.08.656-1.08 1.104 0 .848.944 1.272 2.832 1.272 1.904 0 2.856-.424 2.856-1.272 0-.688-.624-1.032-1.872-1.032-.048 0-.264.008-.648.024h-.648zm19.248-6.696c0 .672-.084 1.12-.252 1.344-.168.224-.5.336-.996.336h-5.856c-.288 0-.468.028-.54.084-.072.056-.108.196-.108.42 0 .672.216 1.232.648 1.68.432.448.976.672 1.632.672.672 0 1.36-.368 2.064-1.104.48-.512 1.008-.768 1.584-.768.48 0 .868.136 1.164.408.296.272.444.616.444 1.032 0 .928-.508 1.716-1.524 2.364-1.016.648-2.252.972-3.708.972-1.904 0-3.424-.576-4.56-1.728-1.136-1.152-1.704-2.688-1.704-4.608 0-1.936.564-3.5 1.692-4.692 1.128-1.192 2.604-1.788 4.428-1.788 1.696 0 3.052.488 4.068 1.464 1.016.976 1.524 2.28 1.524 3.912zm-7.632-1.2c0 .096.024.176.072.24.048.064.216.096.504.096h2.688c.24 0 .388-.028.444-.084.056-.056.084-.156.084-.3 0-.416-.184-.78-.552-1.092a1.941 1.941 0 0 0-1.296-.468c-.64 0-1.16.248-1.56.744-.256.32-.384.608-.384.864zM143.472 5.6v1.152c1.232-1.44 2.624-2.16 4.176-2.16 1.664 0 2.84.624 3.528 1.872.368.64.552 1.648.552 3.024v3.6c0 .816.16 1.224.48 1.224.08 0 .2-.024.36-.072.08-.032.2-.048.36-.048.704 0 1.056.416 1.056 1.248 0 1.104-.48 1.656-1.44 1.656-.256 0-.64-.032-1.152-.096a10.186 10.186 0 0 0-1.152-.096c-.4 0-.824.032-1.272.096a8.11 8.11 0 0 1-1.104.096c-.944 0-1.416-.488-1.416-1.464 0-.848.328-1.296.984-1.344.432-.032.648-.232.648-.6v-3.36c0-.928-.12-1.58-.36-1.956-.24-.376-.648-.564-1.224-.564-.656 0-1.196.224-1.62.672-.424.448-.636 1.016-.636 1.704v2.496c0 .72.032 1.156.096 1.308.064.152.248.252.552.3.576.08.864.512.864 1.296 0 1.008-.424 1.512-1.272 1.512-.24 0-.536-.024-.888-.072-.592-.08-1.032-.12-1.32-.12-.288 0-.716.032-1.284.096-.568.064-.996.096-1.284.096-1.008 0-1.512-.536-1.512-1.608 0-.896.384-1.344 1.152-1.344.128 0 .272.028.432.084.16.056.28.084.36.084.272 0 .408-.448.408-1.344V9.08c0-.912-.136-1.368-.408-1.368-.064 0-.188.028-.372.084a1.584 1.584 0 0 1-.42.084c-.768 0-1.152-.44-1.152-1.32 0-.48.132-.872.396-1.176.264-.304.612-.456 1.044-.456.128 0 .4.04.816.12.24.048.448.072.624.072.192 0 .52-.032.984-.096.464-.064.72-.096.768-.096.432 0 .648.224.648.672zm22.896 4.368c0 .672-.084 1.12-.252 1.344-.168.224-.5.336-.996.336h-5.856c-.288 0-.468.028-.54.084-.072.056-.108.196-.108.42 0 .672.216 1.232.648 1.68.432.448.976.672 1.632.672.672 0 1.36-.368 2.064-1.104.48-.512 1.008-.768 1.584-.768.48 0 .868.136 1.164.408.296.272.444.616.444 1.032 0 .928-.508 1.716-1.524 2.364-1.016.648-2.252.972-3.708.972-1.904 0-3.424-.576-4.56-1.728-1.136-1.152-1.704-2.688-1.704-4.608 0-1.936.564-3.5 1.692-4.692 1.128-1.192 2.604-1.788 4.428-1.788 1.696 0 3.052.488 4.068 1.464 1.016.976 1.524 2.28 1.524 3.912zm-7.632-1.2c0 .096.024.176.072.24.048.064.216.096.504.096H162c.24 0 .388-.028.444-.084.056-.056.084-.156.084-.3 0-.416-.184-.78-.552-1.092a1.941 1.941 0 0 0-1.296-.468c-.64 0-1.16.248-1.56.744-.256.32-.384.608-.384.864zm13.992-3.096v2.04c.224-.816.488-1.416.792-1.8.704-.88 1.688-1.32 2.952-1.32.88 0 1.62.284 2.22.852.6.568.9 1.268.9 2.1 0 .656-.192 1.196-.576 1.62-.384.424-.872.636-1.464.636a1.62 1.62 0 0 1-1.14-.432 1.382 1.382 0 0 1-.468-1.056c0-.224.104-.536.312-.936h-.144c-1.072 0-1.792.568-2.16 1.704-.288.912-.432 1.96-.432 3.144v.912c0 .576.048.944.144 1.104.064.096.176.144.336.144.144 0 .344-.032.6-.096s.448-.096.576-.096c.352 0 .652.124.9.372s.372.548.372.9c0 .464-.156.852-.468 1.164a1.551 1.551 0 0 1-1.14.468c-.24 0-.688-.04-1.344-.12a13.08 13.08 0 0 0-1.512-.072c-.608 0-1.144.024-1.608.072-.768.08-1.24.12-1.416.12-.992 0-1.488-.536-1.488-1.608 0-.896.384-1.344 1.152-1.344.128 0 .272.028.432.084.16.056.28.084.36.084.272 0 .408-.448.408-1.344V9.08c0-.912-.136-1.368-.408-1.368-.064 0-.188.028-.372.084a1.584 1.584 0 0 1-.42.084c-.768 0-1.152-.44-1.152-1.32 0-.48.128-.872.384-1.176.256-.304.584-.456.984-.456.16 0 .384.032.672.096.288.064.56.096.816.096.192 0 .472-.032.84-.096a5.3 5.3 0 0 1 .816-.096c.496 0 .744.248.744.744zM190.8 17.408c-1.312 0-2.192-.528-2.64-1.584-1.12 1.056-2.448 1.584-3.984 1.584-1.264 0-2.272-.332-3.024-.996-.752-.664-1.128-1.548-1.128-2.652 0-1.68.728-2.768 2.184-3.264a15.264 15.264 0 0 1 2.16-.528c1.136-.192 1.908-.412 2.316-.66.408-.248.612-.628.612-1.14 0-.368-.156-.676-.468-.924-.312-.248-.7-.372-1.164-.372-.528 0-.792.168-.792.504 0 .112.008.224.024.336v.096c0 .448-.188.824-.564 1.128-.376.304-.844.456-1.404.456-.64 0-1.168-.192-1.584-.576a1.878 1.878 0 0 1-.624-1.44c0-.864.456-1.544 1.368-2.04.912-.496 2.168-.744 3.768-.744 1.728 0 3.016.264 3.864.792.912.576 1.368 1.648 1.368 3.216v4.968c0 .512.128.768.384.768.128 0 .248-.008.36-.024a.532.532 0 0 1 .168-.024c.368 0 .68.128.936.384s.384.568.384.936c0 .528-.236.96-.708 1.296-.472.336-1.076.504-1.812.504zm-3.48-5.136v-.528c-.112.064-.816.264-2.112.6-.88.224-1.32.568-1.32 1.032 0 .736.432 1.104 1.296 1.104 1.424 0 2.136-.736 2.136-2.208zm11.784-4.056V9.2l-.024 1.488-.048 1.608c-.016.528-.024.744-.024.648 0 .944.304 1.416.912 1.416.576 0 .864-.424.864-1.272a1.28 1.28 0 0 0-.024-.288v-.312a1.948 1.948 0 0 1-.024-.24c0-.864.432-1.296 1.296-1.296 1.008 0 1.512.808 1.512 2.424 0 1.264-.376 2.252-1.128 2.964-.752.712-1.8 1.068-3.144 1.068-2.64 0-3.96-1.392-3.96-4.176 0-.448.02-1.12.06-2.016.04-.896.06-1.568.06-2.016v-.768c0-.4-.036-.652-.108-.756-.072-.104-.244-.156-.516-.156h-.384a.921.921 0 0 1-.744-.348c-.192-.232-.288-.532-.288-.9s.1-.684.3-.948c.2-.264.436-.396.708-.396h.456c.384 0 .608-.112.672-.336.048-.128.072-.344.072-.648V2.768c0-.56.148-.944.444-1.152.296-.208.836-.312 1.62-.312.56 0 .94.08 1.14.24.2.16.3.512.3 1.056v1.296c0 .464.044.752.132.864.088.112.316.168.684.168h1.728c.944 0 1.416.44 1.416 1.32 0 .848-.432 1.272-1.296 1.272H199.8c-.336 0-.536.056-.6.168-.064.112-.096.288-.096.528zm11.592 9.192c-1.984 0-3.516-.56-4.596-1.68-1.08-1.12-1.62-2.696-1.62-4.728 0-2.016.536-3.588 1.608-4.716 1.072-1.128 2.576-1.692 4.512-1.692 1.904 0 3.404.56 4.5 1.68 1.096 1.12 1.644 2.656 1.644 4.608 0 2.048-.532 3.648-1.596 4.8-1.064 1.152-2.548 1.728-4.452 1.728zm-.096-9.864c-.704 0-1.26.308-1.668.924-.408.616-.612 1.46-.612 2.532 0 1.088.204 1.936.612 2.544.408.608.98.912 1.716.912 1.488 0 2.232-1.152 2.232-3.456 0-2.304-.76-3.456-2.28-3.456zm12.384-1.872v2.04c.224-.816.488-1.416.792-1.8.704-.88 1.688-1.32 2.952-1.32.88 0 1.62.284 2.22.852.6.568.9 1.268.9 2.1 0 .656-.192 1.196-.576 1.62-.384.424-.872.636-1.464.636a1.62 1.62 0 0 1-1.14-.432 1.382 1.382 0 0 1-.468-1.056c0-.224.104-.536.312-.936h-.144c-1.072 0-1.792.568-2.16 1.704-.288.912-.432 1.96-.432 3.144v.912c0 .576.048.944.144 1.104.064.096.176.144.336.144.144 0 .344-.032.6-.096s.448-.096.576-.096c.352 0 .652.124.9.372s.372.548.372.9c0 .464-.156.852-.468 1.164a1.551 1.551 0 0 1-1.14.468c-.24 0-.688-.04-1.344-.12a13.08 13.08 0 0 0-1.512-.072c-.608 0-1.144.024-1.608.072-.768.08-1.24.12-1.416.12-.992 0-1.488-.536-1.488-1.608 0-.896.384-1.344 1.152-1.344.128 0 .272.028.432.084.16.056.28.084.36.084.272 0 .408-.448.408-1.344V9.08c0-.912-.136-1.368-.408-1.368-.064 0-.188.028-.372.084a1.584 1.584 0 0 1-.42.084c-.768 0-1.152-.44-1.152-1.32 0-.48.128-.872.384-1.176.256-.304.584-.456.984-.456.16 0 .384.032.672.096.288.064.56.096.816.096.192 0 .472-.032.84-.096a5.3 5.3 0 0 1 .816-.096c.496 0 .744.248.744.744z"
          fill="currentColor" fill-rule="evenodd"/>
</svg>